# xmcd CD database file
#
# Track frame offsets:
#	150
#	14744
#	29375
#	41094
#	53369
#	64938
#	81586
#	98135
#	116169
#	133820
#	146717
#	157726
#	170876
#
# Disc length: 2518 seconds
#
# Revision: 0
# Processed by: cddbd v1.5.2PL0 Copyright (c) Steve Scherf et al.
# Submitted via: CDex 1.76
#
DISCID=bb09d40d
DTITLE=Patrick Tevlin - When I Get Low I get High
DYEAR=2013
DGENRE=Blues
TTITLE0=When I Get Low I Get High
TTITLE1=Bread And Gravy
TTITLE2=And The Angels Sing
TTITLE3=La Vie En Rose
TTITLE4=Walking After Midnight
TTITLE5=Heebie Jeebies
TTITLE6=Cover The Waterfront
TTITLE7=Apple Blossom Time
TTITLE8=Crazy
TTITLE9=Smile
TTITLE10=Perfidia
TTITLE11=Diamonds Are A Girl's Best Friend
TTITLE12=Stars Fell On Alabama
EXTD=YEAR: 2013
EXTT0=
EXTT1=
EXTT2=
EXTT3=
EXTT4=
EXTT5=
EXTT6=
EXTT7=
EXTT8=
EXTT9=
EXTT10=
EXTT11=
EXTT12=
PLAYORDER=
